<mxfile host="app.diagrams.net" modified="2023-08-15T11:23:20.855Z" agent="Mozilla/5.0 (Macintosh; Intel Mac OS X 10_15_7) AppleWebKit/537.36 (KHTML, like Gecko) Chrome/115.0.0.0 Safari/537.36" etag="U7kaebSQR-HWzM0LS1yY" version="21.6.8" type="device">
  <diagram name="Page-1" id="0X86rArT-q2FdGsDRcqN">
    <mxGraphModel dx="1371" dy="975" grid="1" gridSize="10" guides="1" tooltips="1" connect="1" arrows="1" fold="1" page="1" pageScale="1" pageWidth="827" pageHeight="1169" math="0" shadow="0">
      <root>
        <mxCell id="0" />
        <mxCell id="1" parent="0" />
        <mxCell id="eqZKzjtaD6-pgv1FxzN4-3" style="edgeStyle=orthogonalEdgeStyle;rounded=0;orthogonalLoop=1;jettySize=auto;html=1;entryX=0.5;entryY=0;entryDx=0;entryDy=0;" edge="1" parent="1" source="eqZKzjtaD6-pgv1FxzN4-1" target="eqZKzjtaD6-pgv1FxzN4-2">
          <mxGeometry relative="1" as="geometry" />
        </mxCell>
        <mxCell id="eqZKzjtaD6-pgv1FxzN4-1" value="Start" style="ellipse;whiteSpace=wrap;html=1;" vertex="1" parent="1">
          <mxGeometry x="360" y="60" width="80" height="40" as="geometry" />
        </mxCell>
        <mxCell id="eqZKzjtaD6-pgv1FxzN4-6" style="edgeStyle=orthogonalEdgeStyle;rounded=0;orthogonalLoop=1;jettySize=auto;html=1;entryX=0.5;entryY=0;entryDx=0;entryDy=0;" edge="1" parent="1" source="eqZKzjtaD6-pgv1FxzN4-2" target="eqZKzjtaD6-pgv1FxzN4-5">
          <mxGeometry relative="1" as="geometry" />
        </mxCell>
        <mxCell id="eqZKzjtaD6-pgv1FxzN4-2" value="Input&lt;br&gt;totalPopulation, percentMen, percentTotalLiteracy, percentLiterateMen" style="shape=parallelogram;perimeter=parallelogramPerimeter;whiteSpace=wrap;html=1;fixedSize=1;" vertex="1" parent="1">
          <mxGeometry x="230" y="160" width="340" height="80" as="geometry" />
        </mxCell>
        <mxCell id="eqZKzjtaD6-pgv1FxzN4-9" style="edgeStyle=orthogonalEdgeStyle;rounded=0;orthogonalLoop=1;jettySize=auto;html=1;entryX=0.5;entryY=0;entryDx=0;entryDy=0;" edge="1" parent="1" source="eqZKzjtaD6-pgv1FxzN4-5" target="eqZKzjtaD6-pgv1FxzN4-8">
          <mxGeometry relative="1" as="geometry" />
        </mxCell>
        <mxCell id="eqZKzjtaD6-pgv1FxzN4-5" value="&lt;div style=&quot;border-color: var(--border-color);&quot;&gt;Calculate&lt;/div&gt;&lt;div style=&quot;border-color: var(--border-color);&quot;&gt;numMen = (percentMen / 100) * totalPopulation&lt;/div&gt;&lt;div style=&quot;border-color: var(--border-color);&quot;&gt;numTotalLiterate = (percentTotalLiteracy / 100) * totalPopulation&lt;/div&gt;&lt;div style=&quot;border-color: var(--border-color);&quot;&gt;numLiterateMen = (percentLiterateMen / 100) * totalPopulation&lt;/div&gt;&lt;div style=&quot;border-color: var(--border-color);&quot;&gt;numLiterateWomen = numTotalLiterate - numLiterateMen&lt;/div&gt;&lt;div style=&quot;border-color: var(--border-color);&quot;&gt;numIlliterateMen = numMen - numLiterateMen&lt;/div&gt;&lt;div style=&quot;border-color: var(--border-color);&quot;&gt;numIlliterateWomen = totalPopulation - (numMen + numLiterateWomen)&lt;/div&gt;" style="rounded=0;whiteSpace=wrap;html=1;" vertex="1" parent="1">
          <mxGeometry x="230" y="330" width="340" height="160" as="geometry" />
        </mxCell>
        <mxCell id="eqZKzjtaD6-pgv1FxzN4-11" style="edgeStyle=orthogonalEdgeStyle;rounded=0;orthogonalLoop=1;jettySize=auto;html=1;entryX=0.5;entryY=0;entryDx=0;entryDy=0;" edge="1" parent="1" source="eqZKzjtaD6-pgv1FxzN4-8" target="eqZKzjtaD6-pgv1FxzN4-10">
          <mxGeometry relative="1" as="geometry" />
        </mxCell>
        <mxCell id="eqZKzjtaD6-pgv1FxzN4-8" value="Display&lt;br&gt;All given and calculate Data" style="shape=parallelogram;perimeter=parallelogramPerimeter;whiteSpace=wrap;html=1;fixedSize=1;" vertex="1" parent="1">
          <mxGeometry x="230" y="570" width="340" height="60" as="geometry" />
        </mxCell>
        <mxCell id="eqZKzjtaD6-pgv1FxzN4-10" value="Start" style="ellipse;whiteSpace=wrap;html=1;" vertex="1" parent="1">
          <mxGeometry x="360" y="700" width="80" height="40" as="geometry" />
        </mxCell>
      </root>
    </mxGraphModel>
  </diagram>
</mxfile>
